<?xml version="1.0" encoding="utf-8"?>
<!-- Generator: Adobe Illustrator 18.0.0, SVG Export Plug-In . SVG Version: 6.00 Build 0)  -->
<!DOCTYPE svg PUBLIC "-//W3C//DTD SVG 1.1//EN" "http://www.w3.org/Graphics/SVG/1.1/DTD/svg11.dtd">
<svg xmlns="http://www.w3.org/2000/svg" xmlns:xlink="http://www.w3.org/1999/xlink" version="1.1" id="Слой_2" x="0px" y="0px" viewBox="106 0 1394 1200" enable-background="new 106 0 1394 1200" xml:space="preserve">
<path fill="#000000" stroke="" stroke-width="2" stroke-miterlimit="10" d="M1481.6,1133.5c-3.4,0.9-13,8.4-16.7,9.6  c-9.7,3-13.1,0.1-22.7-4.7c-9.1-4.7-23.4-16.6-30-24.6c-13-15.9-53.4-75.3-66.7-90.3c-12.3-14-51.7-49.7-99.6-64.6  c-100.5-31.4-162.9-15.3-183.6-23.3c-36.4-14.1-49.3-46.7-44.6-89.7c2.1-18.6-0.9-96.5-11-175.9c-11.4-89.2-36.2-187.8-162.8-256.9  c-65.3-35.6-84.6-34.2-120.9-46.4c-70-23.7-144.8-35.3-193-101.2c-11.4-15.6-20-32.9-30-49.2c-9.1-14.9-18-29.4-27.6-44.3  c-8.7-13.6-37.4-55-63.2-74.3c-13.4-10-33-15.4-49-19.4c-9.7-2.4-47.3-6.9-54.2-11.4c-15.1-10.1-26.4-23-43.6-30.6  c-15.1-6.7-29-16.6-43.4-23.6c-10.4-5.1-38.6-24.9-32.6,1.4c3.9,16.7,11.3,33,17,48.9c2.7,7.6,7.6,14.9,8.4,22.6  c1.3,12.4-2.4,16.6-10.9,24.3c-11.1,10.3-24.3,22.7-33.9,35.3c-6,7.9-12.3,15.9-17.4,24.3c-2.6,4.3-4.6,7.7-3.9,13.1  c0.4,3.6,3.4,7.1,3.4,10.4c0,8.4-8.6,16-12.6,23.3c-4.1,7.6-8.7,14.1-13.7,21.3c-4.1,5.9-10.4,12.9-10.4,20.3s6.6,14.3,8.6,21.3  c2.9,9.6,7.3,37.9,23.7,36.2l1.1,1.1c6.3,13.3,15,29.4,31.2,31.2c10.1,1,19.3-1.4,28.7-2.1c9.9-0.9,20-0.3,29.9-0.3  c24-0.1,35.3,50.2,37.3,58.3c2.3,9.3,1.6,17.6,0.7,27.6c-3.3,36.6-18.7,73.4-8.1,111.6c5.6,19.9,6.9,37.3,17.7,56.3  c9.9,17,24.4,30.4,37.2,45.6c12.9,15.3,23,33.6,33.4,50.4c9.4,15.4,17.3,32.9,18.4,50.9c2.7,40,12.9,80,16.4,119.9  c1.9,20-3.6,39.9-3.6,59.9c0,19.7,0.4,40.3,2.4,59.9c1.7,17.1,4,39.2-6.3,53.6c-5.4,7.6-10,13.4-18.9,17c-9.4,3.7-19,0-28.7,2.3  c-11.6,2.7-16,16.4-13.1,26.4c3.3,11.6,13.1,14.1,23.7,13.3c6.7,13.6,30.4,9.7,43.3,7.3c14.7-2.9,30.2-4.3,44.3-8.6h7.1  c-0.6,16.1,31.9,15.9,31.3,2.6c9.7,5.4,14.9,7.9,25.9,4.4c-0.6-1.3,9.7-2.6,8.6-4c8.6-6.3,16.1-2.4,26.3-1.9  c13.1,0.9,168.5,16.4,178.3,15.6c9.4-0.7,82.9,1.3,102.9-2.4c57.4-10.7,99.9-39.7,249.8-94.2c61-22.1,140.8-11.6,178.6-2.1  c38.3,9.6,64.3,44.9,85.7,74.3c11.9,16.3,20,31.2,33.6,45.7c12.4,13.4,23.4,27.3,38.6,38.3c15.4,11.1,35.7,19.4,53.9,22.7  c20,3.7,36-10.7,41.6-28.7C1497.1,1158.5,1494.9,1129.9,1481.6,1133.5z M495.9,1034.3c-7.6,0.6-12,1.3-18.1,5c-2.4,1.4-5.4,3-7.7,5  c-2.3,2-2.9,5.3-5.4,5.9c1-7.3,5.6-14.3,8.6-21.4c3.4-7.7,26.9-198.5,23.6-236.1c-1.1-13.6,7.1,18,7.1,18  c-3.7,3.3-11.9,53.9,14,132.3c19.1,58,108.9,98.2,113.3,101C624.3,1044.9,503.4,1033.8,495.9,1034.3z"/>
</svg>
